<mxfile host="app.diagrams.net" modified="2024-03-20T04:05:00.310Z" agent="Mozilla/5.0 (Windows NT 10.0; Win64; x64) AppleWebKit/537.36 (KHTML, like Gecko) Chrome/122.0.0.0 Safari/537.36" etag="vDeUT9neibXjvLm6u0Qp" version="24.0.7" type="device">
  <diagram name="Page-1" id="-M1mOqgkgc6WAFmiM6tJ">
    <mxGraphModel dx="1050" dy="522" grid="1" gridSize="10" guides="1" tooltips="1" connect="1" arrows="1" fold="1" page="1" pageScale="1" pageWidth="827" pageHeight="1169" math="0" shadow="0">
      <root>
        <mxCell id="0" />
        <mxCell id="1" parent="0" />
        <mxCell id="J2wnMTfmRYzKpFQqCjkr-20" value="" style="rounded=1;whiteSpace=wrap;html=1;" parent="1" vertex="1">
          <mxGeometry x="20" y="90" width="170" height="260" as="geometry" />
        </mxCell>
        <mxCell id="J2wnMTfmRYzKpFQqCjkr-1" value="" style="rounded=1;whiteSpace=wrap;html=1;" parent="1" vertex="1">
          <mxGeometry x="40" y="110" width="120" height="60" as="geometry" />
        </mxCell>
        <mxCell id="J2wnMTfmRYzKpFQqCjkr-2" value="" style="rounded=1;whiteSpace=wrap;html=1;" parent="1" vertex="1">
          <mxGeometry x="40" y="190" width="120" height="60" as="geometry" />
        </mxCell>
        <mxCell id="J2wnMTfmRYzKpFQqCjkr-3" value="" style="rounded=1;whiteSpace=wrap;html=1;" parent="1" vertex="1">
          <mxGeometry x="40" y="270" width="120" height="60" as="geometry" />
        </mxCell>
        <mxCell id="J2wnMTfmRYzKpFQqCjkr-4" value="" style="endArrow=classic;html=1;rounded=0;" parent="1" edge="1">
          <mxGeometry width="50" height="50" relative="1" as="geometry">
            <mxPoint x="160" y="140" as="sourcePoint" />
            <mxPoint x="220" y="200" as="targetPoint" />
          </mxGeometry>
        </mxCell>
        <mxCell id="J2wnMTfmRYzKpFQqCjkr-10" value="" style="endArrow=classic;html=1;rounded=0;" parent="1" edge="1">
          <mxGeometry width="50" height="50" relative="1" as="geometry">
            <mxPoint x="160" y="221" as="sourcePoint" />
            <mxPoint x="220" y="221" as="targetPoint" />
          </mxGeometry>
        </mxCell>
        <mxCell id="J2wnMTfmRYzKpFQqCjkr-11" value="" style="endArrow=classic;html=1;rounded=0;" parent="1" edge="1">
          <mxGeometry width="50" height="50" relative="1" as="geometry">
            <mxPoint x="161" y="301" as="sourcePoint" />
            <mxPoint x="221" y="240" as="targetPoint" />
          </mxGeometry>
        </mxCell>
        <mxCell id="J2wnMTfmRYzKpFQqCjkr-13" value="&lt;div&gt;&lt;br&gt;&lt;/div&gt;&lt;div&gt;&lt;br&gt;&lt;/div&gt;&lt;br&gt;&lt;b&gt;&lt;span style=&quot;color: rgb(0, 0, 0); font-family: Helvetica; font-size: 12px; font-style: normal; font-variant-ligatures: normal; font-variant-caps: normal; letter-spacing: normal; orphans: 2; text-align: center; text-indent: 0px; text-transform: none; widows: 2; word-spacing: 0px; -webkit-text-stroke-width: 0px; white-space: normal; background-color: rgb(251, 251, 251); text-decoration-thickness: initial; text-decoration-style: initial; text-decoration-color: initial; float: none; display: inline !important;&quot;&gt;Data&amp;nbsp;&lt;/span&gt;&lt;/b&gt;&lt;div&gt;&lt;b&gt;&lt;span style=&quot;color: rgb(0, 0, 0); font-family: Helvetica; font-size: 12px; font-style: normal; font-variant-ligatures: normal; font-variant-caps: normal; letter-spacing: normal; orphans: 2; text-align: center; text-indent: 0px; text-transform: none; widows: 2; word-spacing: 0px; -webkit-text-stroke-width: 0px; white-space: normal; background-color: rgb(251, 251, 251); text-decoration-thickness: initial; text-decoration-style: initial; text-decoration-color: initial; float: none; display: inline !important;&quot;&gt;Processing&lt;/span&gt;&lt;/b&gt;&lt;div&gt;&lt;br&gt;&lt;/div&gt;&lt;/div&gt;" style="rounded=1;whiteSpace=wrap;html=1;" parent="1" vertex="1">
          <mxGeometry x="580" y="302" width="102" height="88" as="geometry" />
        </mxCell>
        <mxCell id="J2wnMTfmRYzKpFQqCjkr-21" value="&lt;b&gt;Data Files (source) dropped in folders&lt;/b&gt;" style="text;html=1;strokeColor=none;fillColor=none;align=center;verticalAlign=middle;whiteSpace=wrap;rounded=0;" parent="1" vertex="1">
          <mxGeometry x="45" y="45" width="120" height="30" as="geometry" />
        </mxCell>
        <mxCell id="J2wnMTfmRYzKpFQqCjkr-25" value="Batch Processing" style="rounded=1;whiteSpace=wrap;html=1;" parent="1" vertex="1">
          <mxGeometry x="558" y="75" width="90" height="115" as="geometry" />
        </mxCell>
        <mxCell id="J2wnMTfmRYzKpFQqCjkr-26" value="" style="endArrow=classic;html=1;rounded=0;entryX=0.02;entryY=0.427;entryDx=0;entryDy=0;entryPerimeter=0;" parent="1" source="S2mHigKyEddYq1t-zxZo-20" target="J2wnMTfmRYzKpFQqCjkr-13" edge="1">
          <mxGeometry width="50" height="50" relative="1" as="geometry">
            <mxPoint x="490" y="300" as="sourcePoint" />
            <mxPoint x="570" y="350" as="targetPoint" />
          </mxGeometry>
        </mxCell>
        <mxCell id="J2wnMTfmRYzKpFQqCjkr-27" value="Analytics &amp;amp; Reporting" style="rounded=1;whiteSpace=wrap;html=1;" parent="1" vertex="1">
          <mxGeometry x="720" y="75" width="140" height="80" as="geometry" />
        </mxCell>
        <mxCell id="J2wnMTfmRYzKpFQqCjkr-29" value="Data Projections" style="shape=cylinder3;whiteSpace=wrap;html=1;boundedLbl=1;backgroundOutline=1;size=15;" parent="1" vertex="1">
          <mxGeometry x="727" y="470" width="100" height="100" as="geometry" />
        </mxCell>
        <mxCell id="J2wnMTfmRYzKpFQqCjkr-33" value="&lt;b&gt;Data View Creator&lt;/b&gt;" style="rounded=1;whiteSpace=wrap;html=1;" parent="1" vertex="1">
          <mxGeometry x="720" y="315" width="120" height="60" as="geometry" />
        </mxCell>
        <mxCell id="J2wnMTfmRYzKpFQqCjkr-35" value="" style="endArrow=classic;html=1;rounded=0;exitX=0.5;exitY=1;exitDx=0;exitDy=0;" parent="1" source="J2wnMTfmRYzKpFQqCjkr-33" target="J2wnMTfmRYzKpFQqCjkr-29" edge="1">
          <mxGeometry width="50" height="50" relative="1" as="geometry">
            <mxPoint x="550" y="530" as="sourcePoint" />
            <mxPoint x="600" y="480" as="targetPoint" />
          </mxGeometry>
        </mxCell>
        <mxCell id="J2wnMTfmRYzKpFQqCjkr-36" value="Restful &lt;br&gt;API&amp;nbsp;&lt;br&gt;To access Data&lt;br&gt;" style="rounded=1;whiteSpace=wrap;html=1;" parent="1" vertex="1">
          <mxGeometry x="520" y="490" width="89" height="95" as="geometry" />
        </mxCell>
        <mxCell id="J2wnMTfmRYzKpFQqCjkr-38" value="" style="endArrow=classic;html=1;rounded=0;" parent="1" edge="1">
          <mxGeometry width="50" height="50" relative="1" as="geometry">
            <mxPoint x="380" y="519.5" as="sourcePoint" />
            <mxPoint x="510" y="519.5" as="targetPoint" />
          </mxGeometry>
        </mxCell>
        <mxCell id="J2wnMTfmRYzKpFQqCjkr-40" value="Request For data" style="text;html=1;strokeColor=none;fillColor=none;align=center;verticalAlign=middle;whiteSpace=wrap;rounded=0;" parent="1" vertex="1">
          <mxGeometry x="280" y="490" width="100" height="60" as="geometry" />
        </mxCell>
        <mxCell id="S2mHigKyEddYq1t-zxZo-1" value="" style="image;aspect=fixed;html=1;points=[];align=center;fontSize=12;image=img/lib/azure2/general/Storage_Container.svg;" parent="1" vertex="1">
          <mxGeometry x="50" y="117" width="44.31" height="36" as="geometry" />
        </mxCell>
        <mxCell id="S2mHigKyEddYq1t-zxZo-2" value="&lt;br&gt;&lt;span style=&quot;color: rgb(0, 0, 0); font-family: Helvetica; font-size: 12px; font-style: normal; font-variant-ligatures: normal; font-variant-caps: normal; letter-spacing: normal; orphans: 2; text-align: center; text-indent: 0px; text-transform: none; widows: 2; word-spacing: 0px; -webkit-text-stroke-width: 0px; white-space: normal; background-color: rgb(251, 251, 251); text-decoration-thickness: initial; text-decoration-style: initial; text-decoration-color: initial; float: none; display: inline !important;&quot;&gt;source1&lt;/span&gt;&lt;div&gt;&lt;br/&gt;&lt;/div&gt;" style="text;html=1;align=center;verticalAlign=middle;whiteSpace=wrap;rounded=0;fontStyle=1" parent="1" vertex="1">
          <mxGeometry x="80" y="153" width="60" height="17" as="geometry" />
        </mxCell>
        <mxCell id="S2mHigKyEddYq1t-zxZo-3" value="" style="image;aspect=fixed;html=1;points=[];align=center;fontSize=12;image=img/lib/azure2/general/Storage_Container.svg;" parent="1" vertex="1">
          <mxGeometry x="50" y="193.5" width="44.31" height="36" as="geometry" />
        </mxCell>
        <mxCell id="S2mHigKyEddYq1t-zxZo-4" value="&lt;br&gt;&lt;span style=&quot;color: rgb(0, 0, 0); font-family: Helvetica; font-size: 12px; font-style: normal; font-variant-ligatures: normal; font-variant-caps: normal; letter-spacing: normal; orphans: 2; text-align: center; text-indent: 0px; text-transform: none; widows: 2; word-spacing: 0px; -webkit-text-stroke-width: 0px; white-space: normal; background-color: rgb(251, 251, 251); text-decoration-thickness: initial; text-decoration-style: initial; text-decoration-color: initial; float: none; display: inline !important;&quot;&gt;source2&lt;/span&gt;&lt;div&gt;&lt;br&gt;&lt;/div&gt;" style="text;html=1;align=center;verticalAlign=middle;whiteSpace=wrap;rounded=0;fontStyle=1" parent="1" vertex="1">
          <mxGeometry x="80" y="229.5" width="60" height="17" as="geometry" />
        </mxCell>
        <mxCell id="S2mHigKyEddYq1t-zxZo-5" value="" style="image;aspect=fixed;html=1;points=[];align=center;fontSize=12;image=img/lib/azure2/general/Storage_Container.svg;" parent="1" vertex="1">
          <mxGeometry x="49" y="275" width="44.31" height="36" as="geometry" />
        </mxCell>
        <mxCell id="S2mHigKyEddYq1t-zxZo-6" value="&lt;br&gt;&lt;span style=&quot;color: rgb(0, 0, 0); font-family: Helvetica; font-size: 12px; font-style: normal; font-variant-ligatures: normal; font-variant-caps: normal; letter-spacing: normal; orphans: 2; text-align: center; text-indent: 0px; text-transform: none; widows: 2; word-spacing: 0px; -webkit-text-stroke-width: 0px; white-space: normal; background-color: rgb(251, 251, 251); text-decoration-thickness: initial; text-decoration-style: initial; text-decoration-color: initial; float: none; display: inline !important;&quot;&gt;source3&lt;/span&gt;&lt;div&gt;&lt;br&gt;&lt;/div&gt;" style="text;html=1;align=center;verticalAlign=middle;whiteSpace=wrap;rounded=0;fontStyle=1" parent="1" vertex="1">
          <mxGeometry x="79" y="311" width="60" height="17" as="geometry" />
        </mxCell>
        <mxCell id="S2mHigKyEddYq1t-zxZo-9" value="" style="rounded=1;whiteSpace=wrap;html=1;" parent="1" vertex="1">
          <mxGeometry x="230" y="169.5" width="100" height="110.5" as="geometry" />
        </mxCell>
        <mxCell id="S2mHigKyEddYq1t-zxZo-8" value="" style="image;aspect=fixed;html=1;points=[];align=center;fontSize=12;image=img/lib/azure2/compute/Function_Apps.svg;" parent="1" vertex="1">
          <mxGeometry x="240" y="176.5" width="37.97" height="33.5" as="geometry" />
        </mxCell>
        <mxCell id="S2mHigKyEddYq1t-zxZo-10" value="Reads data from Source &amp;amp; stores in Cloud" style="text;html=1;align=center;verticalAlign=middle;whiteSpace=wrap;rounded=0;fontStyle=1" parent="1" vertex="1">
          <mxGeometry x="210" y="296" width="120" height="34" as="geometry" />
        </mxCell>
        <mxCell id="S2mHigKyEddYq1t-zxZo-11" value="&lt;b&gt;Source Data&lt;/b&gt;&lt;div&gt;&lt;b&gt;Ingestion Service&lt;/b&gt;&lt;br&gt;&lt;/div&gt;" style="text;html=1;align=center;verticalAlign=middle;whiteSpace=wrap;rounded=0;" parent="1" vertex="1">
          <mxGeometry x="260" y="218" width="60" height="40" as="geometry" />
        </mxCell>
        <mxCell id="S2mHigKyEddYq1t-zxZo-14" value="" style="shape=cylinder3;whiteSpace=wrap;html=1;boundedLbl=1;backgroundOutline=1;size=15;" parent="1" vertex="1">
          <mxGeometry x="401" y="126" width="70" height="90" as="geometry" />
        </mxCell>
        <mxCell id="S2mHigKyEddYq1t-zxZo-15" value="&lt;b&gt;Data Store&lt;/b&gt;" style="text;html=1;align=center;verticalAlign=middle;whiteSpace=wrap;rounded=0;" parent="1" vertex="1">
          <mxGeometry x="406" y="166" width="60" height="30" as="geometry" />
        </mxCell>
        <mxCell id="S2mHigKyEddYq1t-zxZo-17" value="" style="endArrow=classic;html=1;rounded=0;exitX=1;exitY=0.457;exitDx=0;exitDy=0;exitPerimeter=0;entryX=0;entryY=0.5;entryDx=0;entryDy=0;entryPerimeter=0;" parent="1" source="S2mHigKyEddYq1t-zxZo-9" target="S2mHigKyEddYq1t-zxZo-14" edge="1">
          <mxGeometry width="50" height="50" relative="1" as="geometry">
            <mxPoint x="390" y="210" as="sourcePoint" />
            <mxPoint x="440" y="160" as="targetPoint" />
          </mxGeometry>
        </mxCell>
        <mxCell id="S2mHigKyEddYq1t-zxZo-20" value="" style="image;aspect=fixed;html=1;points=[];align=center;fontSize=12;image=img/lib/azure2/analytics/Event_Hubs.svg;" parent="1" vertex="1">
          <mxGeometry x="440" y="309" width="67" height="60" as="geometry" />
        </mxCell>
        <mxCell id="S2mHigKyEddYq1t-zxZo-22" value="Data&amp;nbsp;&lt;div&gt;stored&amp;nbsp;&lt;div&gt;event&lt;/div&gt;&lt;/div&gt;" style="text;html=1;align=center;verticalAlign=middle;whiteSpace=wrap;rounded=0;rotation=45;fontStyle=1" parent="1" vertex="1">
          <mxGeometry x="374.69" y="236.31" width="61.11" height="59.39" as="geometry" />
        </mxCell>
        <mxCell id="S2mHigKyEddYq1t-zxZo-23" value="" style="endArrow=none;dashed=1;html=1;dashPattern=1 3;strokeWidth=2;rounded=0;entryX=0;entryY=0.5;entryDx=0;entryDy=0;" parent="1" target="J2wnMTfmRYzKpFQqCjkr-25" edge="1">
          <mxGeometry width="50" height="50" relative="1" as="geometry">
            <mxPoint x="471" y="176.5" as="sourcePoint" />
            <mxPoint x="521" y="126.5" as="targetPoint" />
          </mxGeometry>
        </mxCell>
        <mxCell id="S2mHigKyEddYq1t-zxZo-24" value="" style="endArrow=none;dashed=1;html=1;dashPattern=1 3;strokeWidth=2;rounded=0;entryX=0;entryY=0.568;entryDx=0;entryDy=0;exitX=1.004;exitY=0.395;exitDx=0;exitDy=0;exitPerimeter=0;entryPerimeter=0;" parent="1" source="J2wnMTfmRYzKpFQqCjkr-25" target="J2wnMTfmRYzKpFQqCjkr-27" edge="1">
          <mxGeometry width="50" height="50" relative="1" as="geometry">
            <mxPoint x="390" y="310" as="sourcePoint" />
            <mxPoint x="440" y="260" as="targetPoint" />
          </mxGeometry>
        </mxCell>
        <mxCell id="S2mHigKyEddYq1t-zxZo-25" value="" style="endArrow=none;dashed=1;html=1;dashPattern=1 3;strokeWidth=2;rounded=0;entryX=0;entryY=0.5;entryDx=0;entryDy=0;exitX=1;exitY=0.5;exitDx=0;exitDy=0;" parent="1" source="J2wnMTfmRYzKpFQqCjkr-13" target="J2wnMTfmRYzKpFQqCjkr-33" edge="1">
          <mxGeometry width="50" height="50" relative="1" as="geometry">
            <mxPoint x="660" y="346" as="sourcePoint" />
            <mxPoint x="710" y="296" as="targetPoint" />
          </mxGeometry>
        </mxCell>
        <mxCell id="S2mHigKyEddYq1t-zxZo-26" value="" style="endArrow=none;dashed=1;html=1;dashPattern=1 3;strokeWidth=2;rounded=0;entryX=0;entryY=0.5;entryDx=0;entryDy=0;entryPerimeter=0;" parent="1" target="J2wnMTfmRYzKpFQqCjkr-29" edge="1">
          <mxGeometry width="50" height="50" relative="1" as="geometry">
            <mxPoint x="610" y="520" as="sourcePoint" />
            <mxPoint x="640" y="520" as="targetPoint" />
          </mxGeometry>
        </mxCell>
        <mxCell id="S2mHigKyEddYq1t-zxZo-35" value="" style="endArrow=classic;html=1;rounded=0;exitX=1.016;exitY=0.605;exitDx=0;exitDy=0;exitPerimeter=0;entryX=0;entryY=0.517;entryDx=0;entryDy=0;entryPerimeter=0;" parent="1" source="S2mHigKyEddYq1t-zxZo-9" target="S2mHigKyEddYq1t-zxZo-20" edge="1">
          <mxGeometry width="50" height="50" relative="1" as="geometry">
            <mxPoint x="390" y="310" as="sourcePoint" />
            <mxPoint x="440" y="260" as="targetPoint" />
          </mxGeometry>
        </mxCell>
        <mxCell id="S2mHigKyEddYq1t-zxZo-36" value="&lt;b&gt;Event&amp;nbsp; Hub - RacesInformation&amp;nbsp;&lt;/b&gt;" style="text;html=1;align=center;verticalAlign=middle;whiteSpace=wrap;rounded=0;" parent="1" vertex="1">
          <mxGeometry x="423.5" y="375" width="100" height="30" as="geometry" />
        </mxCell>
        <mxCell id="S2mHigKyEddYq1t-zxZo-37" value="" style="image;aspect=fixed;html=1;points=[];align=center;fontSize=12;image=img/lib/azure2/compute/Function_Apps.svg;" parent="1" vertex="1">
          <mxGeometry x="584.02" y="309" width="37.97" height="33.5" as="geometry" />
        </mxCell>
      </root>
    </mxGraphModel>
  </diagram>
</mxfile>
